# Rhino

mtllib tri3.mtl
usemtl diffuse_128_255_8_255
v 20.024984359741211 0 0
v 17.521862030029297 0 -4.3355364799499512
v 15.018738746643066 0 -8.6710729598999023
v 13.214101791381836 0 -7.6291651725769043
v 14.207855224609375 0 -5.9079327583312988
v 12.482050895690918 0 -4.8971142768859863
v 11.482050895690918 0 -6.6291651725769043
v 10.012492179870605 0 -5.7807149887084961
v 10 0 -4
v 12 0 -4
v 12 0 -2
v 10.012492179870605 0 -2
v 10.012492179870605 0 0
v 15.018738746643066 0 0
vt 0.99019604921340942 0.0098039219155907631
vt 0.7454034686088562 0.5
vt 0.5006108283996582 0.99019604921340942
vt 0.32412660121917725 0.87239313125610352
vt 0.4213106632232666 0.67778253555297852
vt 0.25253579020500183 0.56349462270736694
vt 0.15474089980125427 0.75932842493057251
vt 0.011025594547390938 0.66339868307113647
vt 0.0098039219155907631 0.46206268668174744
vt 0.20539368689060211 0.46206268668174744
vt 0.20539368689060211 0.23593330383300781
vt 0.011025594547390938 0.23593330383300781
vt 0.011025594547390938 0.0098039219155907631
vt 0.5006108283996582 0.0098039219155907631
vn 0 1 0
vn 0 1 0
vn 0 1 0
vn 0 1 0
vn 0 1 0
vn 0 1 0
vn 0 1 0
vn 0 1 0
vn 0 1 0
vn 0 1 0
vn 0 1 0
vn 0 1 0
vn 0 1 0
vn 0 1 0
f 12/12/12 13/13/13 14/14/14 1/1/1 2/2/2 3/3/3 4/4/4 5/5/5 6/6/6 7/7/7 8/8/8 9/9/9 10/10/10 11/11/11
